<?xml version="1.0" encoding="UTF-8"?>
<svg id="_64_whole" data-name="64_whole" xmlns="http://www.w3.org/2000/svg" viewBox="0 0 64 64">
  <defs>
    <style>
      .cls-1 {
        fill: #ffdcd1;
      }

      .cls-2 {
        fill: #f5f5f5;
      }

      .cls-3 {
        fill: #ff4b54;
      }

      .cls-4 {
        fill: #fff;
      }

      .cls-5 {
        fill: #fff9f3;
      }

      .cls-6 {
        fill: #f0c0b8;
      }

      .cls-7 {
        fill: #e4e4e4;
      }

      .cls-8 {
        fill: #333;
      }

      .cls-9 {
        fill: #191919;
      }
    </style>
  </defs>
  <g id="whole">
    <g id="body">
      <g>
        <path id="tail" class="cls-2" d="M58.95,44.49c.21-1.1-.22-2.16-1.02-2.84,.51-.95,.5-2.15-.15-3.1s-1.76-1.41-2.84-1.28c-.28-1.09-1.16-1.99-2.34-2.21-1.63-.31-3.2,.76-3.51,2.38l4.64,13.02c1.51,.67,3.29,0,3.96-1.52,.37-.84,.32-1.75-.05-2.51,.65-.43,1.14-1.11,1.3-1.94Z"/>
        <path id="tail-2" data-name="tail" class="cls-8" d="M52.04,36c.13,0,.25,.01,.38,.04,.75,.14,1.36,.72,1.56,1.48,.11,.45,.52,.75,.97,.75,.04,0,.08,0,.12,0,.08,0,.16-.01,.25-.01,.67,0,1.28,.32,1.65,.86,.42,.61,.45,1.4,.09,2.07-.22,.42-.13,.93,.23,1.24,.56,.48,.82,1.18,.68,1.89-.1,.53-.41,.99-.86,1.29-.42,.28-.57,.82-.35,1.27,.26,.54,.27,1.15,.04,1.67-.32,.72-1.04,1.19-1.83,1.19-.15,0-.3-.02-.44-.05l-4.38-12.28c.26-.82,1.03-1.39,1.9-1.39h0m0-1c-1.41,0-2.67,1-2.94,2.44l4.64,13.02c.4,.18,.81,.26,1.22,.26,1.15,0,2.24-.66,2.74-1.78,.37-.84,.32-1.75-.05-2.51,.65-.43,1.14-1.11,1.3-1.94,.21-1.1-.22-2.16-1.02-2.84,.51-.95,.5-2.15-.15-3.1-.58-.85-1.52-1.3-2.48-1.3-.12,0-.24,0-.37,.02-.28-1.09-1.16-1.99-2.34-2.21-.19-.04-.38-.05-.57-.05h0Z"/>
      </g>
      <g id="_2" data-name="2">
        <g>
          <path class="cls-7" d="M34.88,51.32c-1.17,1.17-1.17,3.07,0,4.24,.34,.34,.74,.57,1.16,.71-.06,.24-.1,.48-.1,.73,0,1.07,.56,2,1.4,2.53-.25,.44-.4,.93-.4,1.47,0,1.66,1.34,3,3,3h1c1.66,0,3-1.34,3-3,0-.54-.15-1.03-.4-1.47,.84-.53,1.4-1.46,1.4-2.53,0-.25-.04-.49-.1-.73,.52-.41,.92-.98,1.08-1.68,.37-1.61-.63-3.23-2.25-3.6l-8.8,.32Z"/>
          <path class="cls-8" d="M43.56,52c1.01,.3,1.62,1.33,1.38,2.37-.13,.55-.46,.91-.72,1.11-.31,.24-.45,.65-.35,1.03,.05,.19,.07,.34,.07,.48,0,.68-.35,1.31-.94,1.69-.45,.29-.6,.87-.33,1.34,.18,.32,.27,.64,.27,.98,0,1.1-.9,2-2,2h-1c-1.1,0-2-.9-2-2,0-.33,.09-.66,.27-.98,.26-.46,.12-1.05-.33-1.34-.59-.37-.94-1-.94-1.69,0-.14,.02-.3,.07-.49,.13-.51-.16-1.02-.65-1.19-.31-.1-.57-.26-.77-.47-.69-.69-.77-1.77-.23-2.55l8.21-.3m.11-1l-8.8,.32c-1.17,1.17-1.17,3.07,0,4.24,.34,.34,.74,.57,1.16,.71-.06,.24-.1,.48-.1,.73,0,1.07,.56,2,1.4,2.53-.25,.44-.4,.93-.4,1.47,0,1.66,1.34,3,3,3h1c1.66,0,3-1.34,3-3,0-.54-.15-1.03-.4-1.47,.84-.53,1.4-1.46,1.4-2.53,0-.25-.04-.49-.1-.73,.52-.41,.92-.98,1.08-1.68,.37-1.61-.63-3.23-2.25-3.6h0Z"/>
        </g>
        <g>
          <path class="cls-6" d="M43.94,61c0-.54-.15-1.03-.4-1.47,.23-.15,.43-.33,.62-.53h-7.43c.18,.2,.39,.38,.62,.53-.25,.44-.4,.93-.4,1.47,0,1.66,1.34,3,3,3h1c1.66,0,3-1.34,3-3Z"/>
          <path class="cls-8" d="M42.66,60s0,.02,.01,.02c.18,.32,.27,.64,.27,.98,0,1.1-.9,2-2,2h-1c-1.1,0-2-.9-2-2,0-.33,.09-.66,.27-.98,0,0,0-.02,.01-.02h4.43m1.5-1h0Zm0,0h-7.43c.18,.2,.39,.38,.62,.53-.25,.44-.4,.93-.4,1.47,0,1.66,1.34,3,3,3h1c1.66,0,3-1.34,3-3,0-.54-.15-1.03-.4-1.47,.23-.15,.43-.33,.62-.53h0Z"/>
        </g>
      </g>
      <g id="_1" data-name="1">
        <g>
          <g>
            <path class="cls-4" d="M53.65,45.5c.81-.54,1.35-1.46,1.35-2.5,0-1.27-.79-2.35-1.9-2.79,.06-.84-.22-1.7-.86-2.34s-1.55-.94-2.42-.85c-.41-1.18-1.51-2.03-2.83-2.03-.77,0-1.47,.3-2,.78-.53-.48-1.23-.78-2-.78s-1.47,.3-2,.78c-.53-.48-1.23-.78-2-.78-.85,0-1.62,.36-2.17,.93-.14-.43-.37-.83-.71-1.17s-.72-.55-1.13-.7c0-.02,0-.04,0-.06,0-1.66-1.34-3-3-3H10c-1.66,0-3,1.34-3,3,0,.54,.15,1.03,.4,1.47-.84,.53-1.4,1.46-1.4,2.53,0,.77,.3,1.47,.78,2-.48,.53-.78,1.23-.78,2,0,.55,.16,1.06,.42,1.5-.26,.44-.42,.95-.42,1.5,0,1.07,.56,2,1.4,2.53-.25,.44-.4,.93-.4,1.47,0,.77,.3,1.47,.78,2-.48,.53-.78,1.23-.78,2,0,1.07,.56,2,1.4,2.53-.25,.44-.4,.93-.4,1.47,0,1.07,.56,2,1.4,2.53-.25,.44-.4,.93-.4,1.47,0,1.66,1.34,3,3,3h2c1.66,0,3-1.34,3-3,0-.64-.21-1.23-.55-1.72,.54-.42,.94-1.02,1.08-1.74,.2-.99-.12-1.96-.76-2.65,.46-.12,.88-.35,1.23-.66,.53,.48,1.23,.78,2,.78,.46,0,.9-.11,1.29-.3,.14,.31,.33,.61,.59,.86,.34,.34,.74,.57,1.16,.71-.06,.24-.1,.48-.1,.73,0,1.07,.56,2,1.4,2.53-.25,.44-.4,.93-.4,1.47,0,1.66,1.34,3,3,3h2.06c1.66,0,3-1.34,3-3,0-.54-.15-1.03-.4-1.47,.84-.53,1.4-1.46,1.4-2.53,0-.54-.15-1.03-.4-1.47,.55-.35,.98-.87,1.21-1.5,.55,.59,1.32,.97,2.19,.97,.77,0,1.47-.3,2-.78,.53,.48,1.23,.78,2,.78,.48,0,.93-.12,1.34-.33,.14,.32,.34,.62,.6,.89,.34,.34,.74,.57,1.16,.71-.06,.24-.1,.48-.1,.73,0,1.07,.56,2,1.4,2.53-.25,.44-.4,.93-.4,1.47,0,1.66,1.34,3,3,3h1.94c1.66,0,3-1.34,3-3,0-.54-.15-1.03-.4-1.47,.84-.53,1.4-1.46,1.4-2.53,0-.54-.15-1.03-.4-1.47,.84-.53,1.4-1.46,1.4-2.53,0-.86-.37-1.63-.95-2.18,1.17-.41,2.01-1.51,2.01-2.82,0-1.04-.54-1.96-1.35-2.5Z"/>
            <path class="cls-8" d="M32,32c1.09,0,1.98,.87,2,1.96,0,.03,0,.06,0,.08,0,.43,.26,.82,.67,.96,.3,.1,.55,.26,.75,.46,.21,.21,.37,.47,.47,.78,.11,.33,.39,.58,.73,.66,.07,.02,.15,.02,.22,.02,.27,0,.53-.11,.72-.31,.38-.4,.9-.62,1.44-.62,.62,0,1.07,.28,1.33,.52,.19,.17,.43,.26,.67,.26s.48-.09,.67-.26c.26-.24,.71-.52,1.33-.52s1.07,.28,1.33,.52c.19,.17,.43,.26,.67,.26s.48-.09,.67-.26c.26-.24,.71-.52,1.33-.52,.85,0,1.6,.54,1.88,1.35,.14,.41,.52,.67,.94,.67,.03,0,.07,0,.1,0,.07,0,.14-.01,.21-.01,.54,0,1.03,.2,1.4,.57,.41,.41,.61,.96,.57,1.56-.03,.44,.22,.84,.63,1,.77,.3,1.27,1.03,1.27,1.86,0,.67-.34,1.29-.9,1.67-.28,.19-.45,.5-.45,.83s.17,.65,.45,.83c.56,.37,.9,1,.9,1.67,0,.84-.54,1.59-1.34,1.88-.33,.12-.57,.39-.65,.74-.07,.34,.04,.7,.29,.94,.41,.39,.64,.9,.64,1.45,0,.68-.35,1.31-.94,1.69-.45,.29-.6,.87-.33,1.34,.18,.32,.27,.64,.27,.98,0,.68-.35,1.31-.94,1.69-.45,.29-.6,.87-.33,1.34,.18,.32,.27,.64,.27,.98,0,1.1-.9,2-2,2h-1.94c-1.1,0-2-.9-2-2,0-.33,.09-.66,.27-.98,.26-.46,.12-1.05-.33-1.34-.59-.37-.94-1-.94-1.69,0-.14,.02-.3,.07-.49,.13-.51-.16-1.02-.65-1.19-.31-.1-.57-.26-.77-.47-.16-.16-.29-.36-.4-.59-.11-.25-.32-.44-.58-.53-.11-.04-.22-.06-.33-.06-.15,0-.31,.04-.45,.11-.29,.15-.59,.22-.89,.22-.62,0-1.07-.28-1.33-.52-.19-.17-.43-.26-.67-.26s-.48,.09-.67,.26c-.26,.24-.71,.52-1.33,.52-.56,0-1.07-.23-1.46-.65-.19-.21-.46-.32-.73-.32-.07,0-.13,0-.2,.02-.34,.07-.62,.31-.74,.63-.15,.41-.44,.77-.8,1-.45,.29-.6,.87-.33,1.34,.18,.32,.27,.64,.27,.98,0,.68-.35,1.31-.94,1.69-.45,.29-.6,.87-.33,1.34,.18,.32,.27,.64,.27,.98,0,1.1-.9,2-2,2h-2.06c-1.1,0-2-.9-2-2,0-.33,.09-.66,.27-.98,.26-.46,.12-1.05-.33-1.34-.59-.37-.94-1-.94-1.69,0-.14,.02-.3,.07-.49,.13-.51-.16-1.02-.65-1.19-.31-.1-.57-.26-.77-.47-.15-.15-.28-.34-.39-.58-.11-.24-.32-.43-.57-.52-.11-.04-.22-.06-.34-.06-.15,0-.3,.03-.43,.1-.28,.13-.57,.2-.86,.2-.62,0-1.07-.28-1.33-.52-.19-.17-.43-.26-.67-.26s-.48,.09-.67,.26c-.23,.21-.51,.36-.82,.44-.34,.09-.61,.35-.7,.69-.1,.34,0,.7,.23,.96,.45,.47,.64,1.14,.51,1.77-.12,.58-.46,.95-.72,1.16-.42,.33-.5,.93-.2,1.36,.24,.34,.37,.74,.37,1.15,0,1.1-.9,2-2,2h-2c-1.1,0-2-.9-2-2,0-.33,.09-.66,.27-.98,.26-.46,.12-1.05-.33-1.34-.59-.37-.94-1-.94-1.69,0-.33,.09-.66,.27-.98,.26-.46,.12-1.05-.33-1.34-.59-.37-.94-1-.94-1.68,0-.62,.28-1.07,.52-1.33,.34-.38,.34-.96,0-1.34-.24-.26-.52-.71-.52-1.33,0-.33,.09-.66,.27-.98,.26-.46,.12-1.05-.33-1.34-.59-.37-.94-1-.94-1.69,0-.34,.09-.68,.28-1,.18-.31,.18-.7,0-1.01-.19-.32-.28-.66-.28-1,0-.62,.28-1.07,.52-1.33,.34-.38,.34-.96,0-1.34-.24-.26-.52-.71-.52-1.33,0-.68,.35-1.31,.94-1.68,.45-.29,.6-.87,.33-1.34-.18-.32-.27-.64-.27-.98,0-1.1,.9-2,2-2H32m0-1H10c-1.66,0-3,1.34-3,3,0,.54,.15,1.03,.4,1.47-.84,.53-1.4,1.46-1.4,2.53,0,.77,.3,1.47,.78,2-.48,.53-.78,1.23-.78,2,0,.55,.16,1.06,.42,1.5-.26,.44-.42,.95-.42,1.5,0,1.07,.56,2,1.4,2.53-.25,.44-.4,.93-.4,1.47,0,.77,.3,1.47,.78,2-.48,.53-.78,1.23-.78,2,0,1.07,.56,2,1.4,2.53-.25,.44-.4,.93-.4,1.47,0,1.07,.56,2,1.4,2.53-.25,.44-.4,.93-.4,1.47,0,1.66,1.34,3,3,3h2c1.66,0,3-1.34,3-3,0-.64-.21-1.23-.55-1.72,.54-.42,.94-1.02,1.08-1.74,.2-.99-.12-1.96-.76-2.65,.46-.12,.88-.35,1.23-.66,.53,.48,1.23,.78,2,.78,.46,0,.9-.11,1.29-.3,.14,.31,.33,.61,.59,.86,.34,.34,.74,.57,1.16,.71-.06,.24-.1,.48-.1,.73,0,1.07,.56,2,1.4,2.53-.25,.44-.4,.93-.4,1.47,0,1.66,1.34,3,3,3h2.06c1.66,0,3-1.34,3-3,0-.54-.15-1.03-.4-1.47,.84-.53,1.4-1.46,1.4-2.53,0-.54-.15-1.03-.4-1.47,.55-.35,.98-.87,1.21-1.5,.55,.59,1.32,.97,2.19,.97,.77,0,1.47-.3,2-.78,.53,.48,1.23,.78,2,.78,.48,0,.93-.12,1.34-.33,.14,.32,.34,.62,.6,.89,.34,.34,.74,.57,1.16,.71-.06,.24-.1,.48-.1,.73,0,1.07,.56,2,1.4,2.53-.25,.44-.4,.93-.4,1.47,0,1.66,1.34,3,3,3h1.94c1.66,0,3-1.34,3-3,0-.54-.15-1.03-.4-1.47,.84-.53,1.4-1.46,1.4-2.53,0-.54-.15-1.03-.4-1.47,.84-.53,1.4-1.46,1.4-2.53,0-.86-.37-1.63-.95-2.18,1.17-.41,2.01-1.51,2.01-2.82,0-1.04-.54-1.96-1.35-2.5,.81-.54,1.35-1.46,1.35-2.5,0-1.27-.79-2.35-1.9-2.79,.06-.84-.22-1.7-.86-2.34-.58-.58-1.35-.87-2.11-.87-.1,0-.21,0-.31,.02-.41-1.18-1.51-2.03-2.83-2.03-.77,0-1.47,.3-2,.78-.53-.48-1.23-.78-2-.78s-1.47,.3-2,.78c-.53-.48-1.23-.78-2-.78-.85,0-1.62,.36-2.17,.93-.14-.43-.37-.83-.71-1.17-.33-.33-.72-.55-1.13-.7,0-.02,0-.04,0-.06,0-1.66-1.34-3-3-3h0Z"/>
          </g>
          <path class="cls-8" d="M15.85,55.01c-1,0-1.99-.45-2.93-1.33-.2-.19-.21-.51-.02-.71,.19-.2,.5-.21,.71-.02,2.23,2.09,3.86,.5,4.03,.31,.19-.2,.5-.21,.71-.02,.2,.19,.21,.5,.03,.7-.04,.04-.95,1.02-2.39,1.07-.04,0-.08,0-.12,0Z"/>
        </g>
        <g>
          <path class="cls-1" d="M16.75,59h-7.75v.2c.13,.12,.25,.24,.4,.33-.25,.44-.4,.93-.4,1.47h0c0,1.66,1.34,3,3,3h2c1.66,0,3-1.34,3-3,0-.64-.21-1.23-.55-1.72,.11-.08,.2-.18,.3-.28Z"/>
          <path class="cls-8" d="M15.73,60c.18,.31,.27,.65,.27,1,0,1.1-.9,2-2,2h-2c-1.1,0-2-.9-2-2,0-.33,.09-.66,.27-.98,0,0,0-.02,.01-.02h5.44m1.02-1h0Zm0,0h-7.75v.2c.13,.12,.25,.24,.4,.33-.25,.44-.4,.93-.4,1.47h0c0,1.66,1.34,3,3,3h2c1.66,0,3-1.34,3-3,0-.64-.21-1.23-.55-1.72,.11-.08,.2-.18,.3-.28h0Z"/>
        </g>
        <g>
          <path class="cls-1" d="M31.75,59h-7.75v.2c.13,.12,.25,.24,.4,.33-.25,.44-.4,.93-.4,1.47h0c0,1.66,1.34,3,3,3h2c1.66,0,3-1.34,3-3,0-.64-.21-1.23-.55-1.72,.11-.08,.2-.18,.3-.28Z"/>
          <path class="cls-8" d="M30.73,60c.18,.31,.27,.65,.27,1,0,1.1-.9,2-2,2h-2c-1.1,0-2-.9-2-2,0-.33,.09-.66,.27-.98,0,0,0-.02,.01-.02h5.44m1.02-1h0Zm0,0h-7.75v.2c.13,.12,.25,.24,.4,.33-.25,.44-.4,.93-.4,1.47h0c0,1.66,1.34,3,3,3h2c1.66,0,3-1.34,3-3,0-.64-.21-1.23-.55-1.72,.11-.08,.2-.18,.3-.28h0Z"/>
        </g>
        <g>
          <path class="cls-1" d="M51.75,59h-7.75v.2c.13,.12,.25,.24,.4,.33-.25,.44-.4,.93-.4,1.47h0c0,1.66,1.34,3,3,3h2c1.66,0,3-1.34,3-3,0-.64-.21-1.23-.55-1.72,.11-.08,.2-.18,.3-.28Z"/>
          <path class="cls-8" d="M50.73,60c.18,.31,.27,.65,.27,1,0,1.1-.9,2-2,2h-2c-1.1,0-2-.9-2-2,0-.33,.09-.66,.27-.98,0,0,0-.02,.01-.02h5.44m1.02-1h0Zm0,0h-7.75v.2c.13,.12,.25,.24,.4,.33-.25,.44-.4,.93-.4,1.47h0c0,1.66,1.34,3,3,3h2c1.66,0,3-1.34,3-3,0-.64-.21-1.23-.55-1.72,.11-.08,.2-.18,.3-.28h0Z"/>
        </g>
      </g>
    </g>
    <g id="head">
      <g id="hair">
        <g>
          <g>
            <g>
              <path class="cls-1" d="M9,11c-2.57-3.86-1.84-7.3-.98-9.27,.34-.79,1.44-.83,1.82-.06l2.17,4.33v3s-3,2-3,2Z"/>
              <path class="cls-8" d="M9,11.5c-.16,0-.32-.08-.42-.22-2.77-4.15-1.83-7.89-1.03-9.74,.24-.55,.76-.9,1.35-.92,.63-.02,1.11,.3,1.38,.83l2.17,4.33c.04,.07,.05,.15,.05,.22v3c0,.17-.08,.32-.22,.42l-3,2c-.08,.06-.18,.08-.28,.08Zm-.05-9.88h-.01c-.2,0-.38,.12-.46,.31-.85,1.96-1.39,4.97,.67,8.37l2.35-1.57v-2.61L9.39,1.89c-.12-.25-.34-.28-.44-.28Z"/>
            </g>
            <g>
              <line class="cls-5" x1="11" y1="8.02" x2="9" y2="4"/>
              <path class="cls-8" d="M11,8.52c-.18,0-.36-.1-.45-.28l-2-4.02c-.12-.25-.02-.55,.22-.67,.25-.12,.55-.02,.67,.23l2,4.02c.12,.25,.02,.55-.22,.67-.07,.04-.15,.05-.22,.05Z"/>
            </g>
          </g>
          <g>
            <g>
              <path class="cls-1" d="M33,11c2.57-3.86,1.84-7.3,.98-9.27-.34-.79-1.44-.83-1.82-.06l-2.17,4.33v3s3,2,3,2Z"/>
              <path class="cls-8" d="M33,11.5c-.1,0-.19-.03-.28-.08l-3-2c-.14-.09-.22-.25-.22-.42v-3c0-.08,.02-.15,.05-.22l2.17-4.33c.26-.53,.83-.85,1.38-.83,.59,.02,1.11,.37,1.35,.92,.8,1.86,1.74,5.59-1.03,9.74-.1,.14-.25,.22-.42,.22Zm-2.5-2.77l2.35,1.57c2.07-3.4,1.52-6.41,.67-8.37-.08-.19-.25-.31-.46-.31-.09,0-.33,.02-.46,.28l-2.11,4.23v2.61Z"/>
            </g>
            <path class="cls-8" d="M31,8.52c-.08,0-.15-.02-.22-.05-.25-.12-.35-.42-.22-.67l2-4.02c.12-.25,.42-.35,.67-.23,.25,.12,.35,.42,.22,.67l-2,4.02c-.09,.18-.26,.28-.45,.28Z"/>
          </g>
        </g>
        <g>
          <path class="cls-4" d="M34.22,17c.48-.53,.78-1.23,.78-2,0-1.07-.56-2-1.4-2.53,.5-.89,.55-2.02,0-2.97-.6-1.03-1.71-1.56-2.82-1.48,.45-1.09,.23-2.38-.65-3.26-.64-.64-1.5-.92-2.34-.86-.44-1.11-1.52-1.9-2.79-1.9-.54,0-1.03,.15-1.47,.4-.53-.84-1.46-1.4-2.53-1.4s-2,.56-2.53,1.4c-.44-.25-.93-.4-1.47-.4-1.27,0-2.35,.79-2.79,1.9-.84-.06-1.7,.22-2.34,.86-.88,.88-1.32,2.18-.88,3.26-1.11-.08-2,.45-2.6,1.48-.55,.95-.51,2.08,0,2.97-.84,.53-1.4,1.46-1.4,2.53,0,.77,.3,1.47,.78,2-.48,.53-.78,1.23-.78,2s.3,1.47,.78,2c-.48,.53-.78,1.23-.78,2s.3,1.47,.78,2c-.48,.53-.78,1.23-.78,2,0,1.66,1.34,3,3,3H32c1.66,0,3-1.34,3-3,0-.77-.3-1.47-.78-2,.48-.53,.78-1.23,.78-2s-.3-1.47-.78-2c.48-.53,.78-1.23,.78-2s-.3-1.47-.78-2Z"/>
          <path class="cls-8" d="M21,2c.68,0,1.31,.35,1.69,.94,.19,.3,.51,.46,.85,.46,.17,0,.34-.04,.49-.13,.32-.18,.64-.27,.98-.27,.82,0,1.55,.5,1.86,1.27,.15,.38,.52,.63,.93,.63,.02,0,.05,0,.07,0,.05,0,.1,0,.15,0,.54,0,1.04,.2,1.41,.57,.57,.57,.74,1.43,.44,2.17-.13,.32-.09,.69,.12,.97,.19,.26,.49,.41,.81,.41,.02,0,.05,0,.07,0,.05,0,.1,0,.15,0,.73,0,1.37,.37,1.73,.99,.35,.61,.35,1.35,0,1.98-.26,.46-.11,1.05,.34,1.34,.59,.37,.93,1,.93,1.68,0,.62-.28,1.07-.52,1.33-.34,.38-.34,.96,0,1.34,.24,.26,.52,.71,.52,1.33s-.28,1.07-.52,1.33c-.34,.38-.34,.96,0,1.34,.24,.26,.52,.71,.52,1.33s-.28,1.07-.52,1.33c-.34,.38-.34,.96,0,1.34,.24,.26,.52,.71,.52,1.33,0,1.1-.9,2-2,2H10c-1.1,0-2-.9-2-2,0-.62,.28-1.07,.52-1.33,.34-.38,.34-.96,0-1.34-.24-.26-.52-.71-.52-1.33s.28-1.07,.52-1.33c.34-.38,.34-.96,0-1.34-.24-.26-.52-.71-.52-1.33s.28-1.07,.52-1.33c.34-.38,.34-.96,0-1.34-.24-.26-.52-.71-.52-1.33,0-.68,.35-1.31,.93-1.68,.45-.29,.6-.87,.34-1.34-.35-.63-.35-1.37,0-1.98,.38-.67,.88-.99,1.51-.99,.05,0,.1,0,.15,0,.02,0,.05,0,.07,0,.32,0,.62-.15,.81-.41,.2-.28,.25-.65,.12-.97-.26-.64,0-1.52,.66-2.17,.37-.37,.87-.57,1.41-.57,.05,0,.1,0,.15,0,.02,0,.05,0,.07,0,.41,0,.78-.25,.93-.63,.3-.77,1.03-1.27,1.86-1.27,.33,0,.66,.09,.98,.27,.16,.09,.33,.13,.49,.13,.33,0,.66-.17,.85-.46,.37-.59,1-.94,1.69-.94m0-1c-1.07,0-2,.56-2.53,1.4-.44-.25-.93-.4-1.47-.4-1.27,0-2.35,.79-2.79,1.9-.07,0-.15,0-.22,0-.77,0-1.53,.28-2.11,.87-.88,.88-1.32,2.18-.88,3.26-.08,0-.15,0-.22,0-1.01,0-1.82,.53-2.37,1.49-.55,.95-.51,2.08,0,2.97-.84,.53-1.4,1.46-1.4,2.53,0,.77,.3,1.47,.78,2-.48,.53-.78,1.23-.78,2s.3,1.47,.78,2c-.48,.53-.78,1.23-.78,2s.3,1.47,.78,2c-.48,.53-.78,1.23-.78,2,0,1.66,1.34,3,3,3H32c1.66,0,3-1.34,3-3,0-.77-.3-1.47-.78-2,.48-.53,.78-1.23,.78-2s-.3-1.47-.78-2c.48-.53,.78-1.23,.78-2s-.3-1.47-.78-2c.48-.53,.78-1.23,.78-2,0-1.07-.56-2-1.4-2.53,.5-.89,.55-2.02,0-2.97-.55-.96-1.56-1.49-2.6-1.49-.08,0-.15,0-.23,0,.45-1.09,.23-2.38-.65-3.26-.58-.58-1.35-.87-2.11-.87-.07,0-.15,0-.22,0-.44-1.11-1.52-1.9-2.79-1.9-.54,0-1.03,.15-1.47,.4-.53-.84-1.46-1.4-2.53-1.4h0Z"/>
        </g>
      </g>
      <g id="face">
        <g id="_2-2" data-name="2">
          <circle class="cls-1" cx="21" cy="18" r="3"/>
          <circle class="cls-1" cx="21" cy="21" r="5"/>
        </g>
        <g id="_1-2" data-name="1">
          <g>
            <circle class="cls-9" cx="14.5" cy="16.5" r="1.5"/>
            <path class="cls-9" d="M28.3,15.23l-2.2,.73c-.06,.17-.1,.35-.1,.53,0,.83,.67,1.5,1.5,1.5s1.5-.67,1.5-1.5c0-.53-.28-1-.7-1.27Z"/>
          </g>
          <path class="cls-8" d="M22,13.5c-1.17,0-1.83-.57-2.18-1.22-.21,.13-.49,.22-.82,.22-1.1,0-1.5-.9-1.5-1.5,0-.28,.22-.5,.5-.5s.5,.22,.5,.5c0,.22,.1,.5,.5,.5s.49-.27,.5-.5c0-.27,.23-.5,.5-.5s.49,.22,.5,.49h0c0,.26,.09,1.51,1.5,1.51s1.5-1.25,1.5-1.5c0-.27,.23-.5,.5-.5h0c.28,0,.5,.22,.5,.5,0,.86-.52,2.5-2.5,2.5Z"/>
          <g>
            <path class="cls-8" d="M21,19.56l-2.22-1.11c-.25-.12-.35-.42-.22-.67,.12-.25,.42-.35,.67-.22l1.78,.89,1.78-.89c.25-.12,.55-.02,.67,.22,.12,.25,.02,.55-.22,.67l-2.22,1.11Z"/>
            <path class="cls-8" d="M21,22.5c-2.18,0-3.31-1.1-3.35-1.15-.2-.2-.2-.51,0-.71,.2-.19,.51-.19,.7,0h0s.9,.86,2.65,.86,2.61-.82,2.65-.86c.2-.19,.52-.19,.71,0,.19,.2,.19,.51,0,.7-.05,.05-1.17,1.15-3.35,1.15Z"/>
            <path class="cls-8" d="M21,22.5c-.28,0-.5-.22-.5-.5v-3c0-.28,.22-.5,.5-.5s.5,.22,.5,.5v3c0,.28-.22,.5-.5,.5Z"/>
          </g>
        </g>
      </g>
    </g>
    <g id="scarf">
      <g>
        <path id="_3" data-name="3" class="cls-3" d="M33,30l-2.67,9.32c-.18,.54-.77,.82-1.3,.62L9,30h24Z"/>
        <path class="cls-8" d="M29.38,40.5c-.18,0-.36-.03-.53-.1L8.78,30.45c-.21-.1-.32-.34-.26-.56,.05-.23,.25-.39,.49-.39h24c.16,0,.3,.07,.4,.2,.09,.12,.12,.29,.08,.44l-2.67,9.32c-.14,.41-.41,.72-.79,.9-.21,.1-.42,.15-.64,.15ZM11.13,30.5l18.12,8.99c.08,.03,.22,.02,.35-.04,.12-.06,.22-.16,.26-.29l2.48-8.66H11.13Z"/>
      </g>
      <g>
        <rect id="_2-3" data-name="2" class="cls-3" x="8" y="29" width="26" height="3" rx="1" ry="1"/>
        <path id="_2-4" data-name="2" class="cls-8" d="M33,30v1H9v-1h24m0-1H9c-.55,0-1,.45-1,1v1c0,.55,.45,1,1,1h24c.55,0,1-.45,1-1v-1c0-.55-.45-1-1-1h0Z"/>
      </g>
      <g id="_1-3" data-name="1">
        <g>
          <path class="cls-3" d="M30.61,26.98c.48,1.79,2.25,2.93,2.8,3.25,.1,.06,.21,.02,.27-.07,.32-.55,1.28-2.43,.8-4.22s-2.25-2.93-2.8-3.25c-.1-.06-.21-.02-.27,.07-.32,.55-1.28,2.43-.8,4.22Z"/>
          <path class="cls-8" d="M32.27,23.26h0m-.38,.79c.6,.46,1.36,1.21,1.61,2.16,.25,.94-.03,1.97-.32,2.67-.6-.46-1.36-1.21-1.61-2.16-.25-.94,.03-1.97,.32-2.67m-.32-1.38c-.07,0-.13,.03-.17,.1-.32,.55-1.28,2.43-.8,4.22,.48,1.79,2.25,2.93,2.8,3.25,.03,.02,.07,.03,.1,.03,.07,0,.13-.03,.17-.1,.32-.55,1.28-2.43,.8-4.22-.48-1.79-2.25-2.93-2.8-3.25-.03-.02-.07-.03-.1-.03h0Z"/>
        </g>
        <g>
          <g>
            <path class="cls-3" d="M38.06,29.86c-1.98,1.14-4.51,.57-5.21,.38-.11-.03-.17-.13-.14-.24,.18-.7,.95-3.18,2.93-4.32s4.51-.57,5.21-.38c.11,.03,.17,.13,.14,.24-.18,.7-.95,3.18-2.93,4.32Z"/>
            <path class="cls-8" d="M38.52,25.99h0c.46,0,.88,.05,1.24,.1-.34,.89-1.02,2.23-2.2,2.9-.64,.37-1.44,.56-2.38,.56-.46,0-.88-.05-1.24-.1,.34-.89,1.02-2.23,2.2-2.9,.64-.37,1.44-.56,2.38-.56m0-1c-.92,0-1.96,.16-2.88,.69-1.98,1.14-2.75,3.63-2.93,4.32-.03,.11,.03,.21,.14,.24,.37,.1,1.27,.31,2.33,.31,.92,0,1.96-.16,2.88-.69,1.98-1.14,2.75-3.63,2.93-4.32,.03-.11-.03-.21-.14-.24-.37-.1-1.27-.31-2.33-.31h0Z"/>
          </g>
          <g>
            <line class="cls-3" x1="33" y1="30" x2="36.85" y2="27.77"/>
            <path class="cls-8" d="M33,30.5c-.17,0-.34-.09-.43-.25-.14-.24-.06-.54,.18-.68l3.85-2.23c.24-.14,.54-.06,.68,.18,.14,.24,.06,.54-.18,.68l-3.85,2.23c-.08,.05-.17,.07-.25,.07Z"/>
          </g>
        </g>
        <g>
          <circle class="cls-3" cx="33" cy="30" r="2"/>
          <path class="cls-8" d="M33,29h0c.18,0,.34,.05,.5,.13,.23,.13,.4,.35,.47,.61,.07,.26,.03,.53-.1,.76-.18,.31-.51,.5-.87,.5-.18,0-.34-.05-.5-.13-.23-.13-.4-.35-.47-.61-.07-.26-.03-.53,.1-.76,.18-.31,.51-.5,.87-.5m0-1c-.69,0-1.36,.36-1.73,1-.55,.96-.22,2.18,.73,2.73,.31,.18,.66,.27,1,.27,.69,0,1.36-.36,1.73-1,.55-.96,.22-2.18-.73-2.73-.31-.18-.66-.27-1-.27h0Z"/>
        </g>
      </g>
    </g>
  </g>
</svg>